<?xml version="1.0" encoding="iso-8859-1"?>
<!-- Uploaded to: SVG Repo, www.svgrepo.com, Generator: SVG Repo Mixer Tools -->
<!DOCTYPE svg PUBLIC "-//W3C//DTD SVG 1.1//EN" "http://www.w3.org/Graphics/SVG/1.1/DTD/svg11.dtd">
<svg fill="#000000" version="1.1" id="Capa_1" xmlns="http://www.w3.org/2000/svg" xmlns:xlink="http://www.w3.org/1999/xlink" 
	 width="800px" height="800px" viewBox="0 0 292.902 292.903"
	 xml:space="preserve">
<g>
	<g>
		<path d="M183.283,66.235c-46.1-9.3-94.7,22.8-99.2,70.3c-4.5,47.1,26.8,92.5,77.5,88c1.1-0.1,1.899-0.5,2.5-1
			C241.883,223.436,263.483,82.436,183.283,66.235z M163.483,212.436c-2.3,0-3.7,1.1-4.601,2.6c-40.299-4.1-65.5-32.1-64.299-73.4
			c1.3-46.4,48-72.9,90.5-64.2C250.783,90.835,225.684,213.036,163.483,212.436z"/>
		<path d="M129.684,116.535c-2.8-3-5.5-4-9.7-3.4c-3.6,0.6-5.3,4.2-5.6,7.4c0,0.2,0,0.3-0.1,0.5c-0.3,3.1,2.4,6,5.1,6.8
			c0.2,0.1,0.1,0,0.2,0C126.983,133.035,136.283,123.535,129.684,116.535z"/>
		<path d="M190.883,106.436c-0.699,0-1.299,0-2,0c-10-0.2-10,15.6,0,15.5c0.701,0,1.301,0,2,0
			C200.883,121.635,200.883,106.635,190.883,106.436z"/>
		<path d="M202.283,151.236L202.283,151.236c0.801-3.3-1-7.5-5.5-7.8c-25-1.4-49.5,5.3-74.4,4.7c-1-0.6-2.2-0.5-3.3-0.1
			c-0.2,0-0.5,0-0.7,0c-3.4-0.2-4,4-1.8,5.8c-1,24,21.2,37.2,43.6,35.3c10.8-0.899,22.1-5.199,30.5-12.199
			C196.684,172.036,208.283,159.635,202.283,151.236z M186.383,165.736c-5.799,6.3-14.299,9.8-22.399,11.899
			c-19.6,4.9-31.8-4.6-38-20.8c21.601,4.5,44.3-1.399,66.3-1.5C190.483,158.835,189.184,162.736,186.383,165.736z"/>
		<path d="M291.983,109.235c2.399-3.4-0.3-7.3-3.5-8.6c-9.2-3.9-17.8-6.1-27.101-7.2c4.5-7.7,8.9-15.4,13-23.4
			c2.201-4.1-0.6-8.4-5-8.8c-9.6-0.9-19-0.7-28.6-0.4c4.4-6.4,8.1-13.2,12-20.3c2.301-4.2-0.699-8.2-5-8.7
			c-9.9-1.3-20.699-2.8-29.8,1.3c-0.3-5.2-1-10.3-1.601-15.1c-0.5-3.8-4.799-8-8.699-5c-8.2,6.2-15,12.7-21,20.4
			c-3.301-8.4-7-16.5-12.2-24.2c-1.899-2.8-6.5-4.2-9-1.2c-6.899,8.1-11.399,16.4-15.2,25.6c-5.7-8.1-11.2-16.4-17.1-24.4
			c-2.5-3.4-7.2-3.8-9.6,0c-6.9,10.7-9.5,22.2-11.3,34.4c-9.2-3.7-18.3-7.6-27.6-11.1c-3.9-1.4-7.3,2.8-6.4,6.4
			c2.3,9.3,4.4,18.6,6.7,28c-7.1-3.5-14.2-6.7-21.8-9c-4.1-1.2-7.3,2.7-6.5,6.5c1.2,5.9,2,11.8,3.5,17.6c-9.8-1.4-19.7-2.5-29.7-2.7
			c-3.9-0.1-6.7,4.6-4.6,8c5.1,8.1,10.8,15.6,16.7,23.1c-12.4,2-24.9,2.3-37.6,2.4c-5.6,0-6.5,6.7-2.6,9.7
			c8.8,6.6,17.4,13.2,27.1,18.1c-8.5,1.7-16.8,4.2-25.3,7.801c-5.8,2.5-2,10,2.8,10.5c10.2,1.199,20.5,2,30.7,2.899
			c-8.4,9.101-15.8,18.3-22,29.7c-2.3,4.2,0.7,8.2,5,8.7c6.6,0.899,13.1,1.3,19.6,1.6c-4.8,6.5-9,13.2-12.9,21
			c-2,3.9,0.4,8.601,5,8.8c10.4,0.2,19.8-0.8,29.7-2.5c-2,8.801-4,17.601-5.9,26.5c-1,4.7,2.7,7.801,7.2,7.2
			c12-1.6,20.7-5.1,29-11.399c1.2,9,3.5,17.5,7.5,26.3c1.2,2.6,5.6,3.899,8,2.1c7.5-5.8,13.2-11.5,18.6-18.2
			c2.6,7.4,5.3,14.7,8.7,22c1.5,3.2,6.9,4,9.2,1.2c6.3-7.8,11.201-15.399,15.9-23.8c5.5,8.1,11.6,14.5,20.2,20.8
			c2.899,2.101,7.899,0,8.601-3.5c1.399-7,2.299-13.899,3.1-20.899c5.699,4.399,12,7.8,19.3,10.8c3.7,1.5,7.8-3,6.5-6.5
			c-1.8-5.3-2.3-10.8-2.8-16.3c8.8,2.699,17.699,4.899,27.1,5.6c4.301,0.3,6.7-4.9,4.801-8.3c-2.301-4.2-4.301-8.5-6.301-12.7
			c6.4-1.5,12.6-3.5,19.2-4.3c3.899-0.5,7.399-4.5,4.899-8.5c-3.299-5-6.5-9.7-10.199-14.2c6.9-1,13.699-2.5,20.6-4.9
			c3.6-1.199,5.2-5,3.4-8.399c-4.7-9.101-10-17.2-17.7-23.9c7.8-7.5,16-13.899,25.5-19.2c3.601-2,4-8.2,0-10
			c-4.601-2.1-9-4.3-13.5-6.3C279.783,123.936,286.383,117.335,291.983,109.235z M252.283,163.135c-0.5,0.7-0.699,1.4-0.6,2.101
			c-2.2,2-3,5.2-0.1,7.8c5.399,4.8,9.6,10.2,13.199,16.1c-7.4,2.101-14.9,3.2-22.8,3.601c-4.601,0.2-8,6.3-4,9.7
			c4.8,4.1,8.7,8.8,12.3,13.8c-6,1.5-11.9,3.399-18.1,4c-4.1,0.399-7,4.399-4.801,8.399c1.801,3.2,3.4,6.601,5,9.9
			c-7.5-1.5-14.799-3.8-22.299-6.2c-4.301-1.399-7.301,2.9-6.701,6.7c0.9,5.4,1.101,10.5,1.801,15.5c-4.301-1.9-8.5-4-12.6-6.4
			c0.1-0.899,0.199-1.8,0.199-2.8c0.301-6.6-8.5-7.3-10.9-2.3c-1.1,0.8-1.6,2.5-0.799,3.8c-0.5,6.4-1.201,12.7-2.201,19
			c-6-5.6-10.799-12.1-14.299-19.5c-2.101-3.7-8.101-3.899-10.101,0c-3.601,7.9-8.1,15.3-13.1,22.4c-2.7-6.9-5.3-13.9-7.6-21
			c-1.7-4.9-7.8-5.7-10.7-1.4c-17,16.4-23.8,14.101-20.5-6.899c-0.2-5-6.2-7.801-9.9-4.101c-6.8,8-14.7,13-23.7,15c2-9,4.1-18,6-27
			c1-4.5-2.7-8-7.2-7.2c-8.7,2-17.4,3.2-26.3,3.601c3.9-7,8.6-13.5,14.3-19.4c3.2-3.7,1.2-9.899-4.1-9.899
			c-7.3-0.101-14.4-0.4-21.5-1c6.8-10.301,14.8-19.301,23.6-28.301c3.8-3.899,0.7-9.3-4.1-9.8c-5.9-0.6-11.8-1.1-17.7-1.6
			c6.6-1.7,13.4-3.101,20.7-4.4c4.5-0.8,3.5-8.5-1.1-8.1c-4.3,0.4-8.5,0.8-12.6,1.4c-7-5.1-13.7-10.4-20.4-15.8
			c11.5-0.4,22.9-1.3,34.3-3.8c4.2-0.9,4.6-5.9,2.3-8.8c-5.1-6.4-10-13-14.7-19.7c8.5,0.7,16.9,1.6,25.3,3c3.5,0.6,8.2-2.3,6.5-6.5
			c-1.8-5-2.8-10.3-3.8-15.7c4.7,1.9,9.4,3.9,14,6.2c3.6,1.7,6.9-0.7,7.7-3.6c1.2-0.4,2.2-1.3,2-2.9c-0.8-8.4-1.9-16.8-2.9-25.1
			c8.6,3.6,17,7.4,25.7,10.8c2.5,1,6.3-1.1,6.7-3.8c1.6-10.4,3-20.6,7.2-30c6.2,8.9,12.2,18,18.9,26.6c2.801,3.6,8.1,1,9.301-2.5
			c3.1-9.1,6.5-17.1,11.699-24.6c4.301,7.9,7.5,16.2,10.7,24.7c1.8,4.7,7.7,5.8,10.601,1.4c4.6-7.2,9.6-13.2,15.5-18.7
			c0.299,9.2-0.101,18.2,0.1,27.5c0.1,5.8,7.8,6.4,9.699,1.3c1.701-4.5,2.5-9.4,2.801-14.4c7-1.4,13.6-1.8,20.3-1.5
			c-4,7.3-8,14.1-14.3,20.2c-3.6,3.5-1,10,4.1,9.9c10.6-0.2,21.1-0.8,31.6-0.5c-4.199,7.8-8.6,15.5-13.199,23.1
			c-2.4,3.9,0.699,8.6,5,8.8c10,0.5,17.6,1.8,25.8,4.6c-6,7-12.8,12.8-20.101,18.7c-3.799,3-1.1,8.4,2.601,9.8
			c4,1.8,8,3.6,12.101,5.5C264.684,148.936,258.184,155.436,252.283,163.135z"/>
	</g>
</g>
</svg>