<?xml version="1.0" encoding="iso-8859-1"?>
<!-- Uploaded to: SVG Repo, www.svgrepo.com, Generator: SVG Repo Mixer Tools -->
<!DOCTYPE svg PUBLIC "-//W3C//DTD SVG 1.1//EN" "http://www.w3.org/Graphics/SVG/1.1/DTD/svg11.dtd">
<svg fill="#000000" version="1.1" id="Capa_1" xmlns="http://www.w3.org/2000/svg" xmlns:xlink="http://www.w3.org/1999/xlink" 
	 width="800px" height="800px" viewBox="0 0 273.867 273.867"
	 xml:space="preserve">
<g>
	<g>
		<path d="M115.802,239.726c0.1-0.2,0.2-0.4,0.3-0.7c1.9-14-1-29-2.8-43c-0.5-3.9-3.8-7.9-8.3-6.3c-1.5,0.5-2.8,1-4,1.6
			c-11.7,0.4-23.3,1.5-34.9,2.9c-0.6-14.2-1.8-28.4-2.3-42.7c7.6-0.601,15.2-0.5,22.8-0.4c7,0,15.8,1.8,22.3-1.399
			c1.2-0.601,1.8-1.7,2.1-2.801c0.6-0.699,1.1-1.6,1.3-2.699c0.8-2,1.4-4.101,1.7-6.2c0.4-0.601,0.8-1.2,0.9-1.8
			c3-18.101,1.6-37.2,1.1-55.4c-0.3-10.5,3.5-33.8-4.2-42.3c-0.2-0.2-0.5-0.4-0.8-0.5c-1.8-2.3-4.1-4.3-7-4.3
			c-0.8,0-1.5,0.199-2.2,0.399c-0.7-0.3-1.6-0.5-2.6-0.5c-25.6,0.2-51,4-76.6,4.601c-3.6,0.1-5.3,2.6-5.4,5.199
			c-1.1,0.4-2.1,1-2.8,2c-7.9,10.7-6,30.9-0.6,42.2c0.6,1.3,1.6,2,2.7,2.4c-0.2,1,0.2,2.2,1.3,2.5c1.3,0.3,3.3,2.899,6,3.2
			c5.8,0.8,11.8,1,17.6,1.3c7.1,0.399,14.4,1,21.8,1.3c-1.3,6.5-1.2,13.9-0.5,20.7c-6.9,0-13.9-0.3-20.8-0.5c-7-0.2-15.9-1.9-22.9,0
			c-0.3,0.1-0.7,0.2-1,0.3c-1.7,0.6-3.3,1.3-4.7,2.4c-0.4,0.3-0.5,0.899-0.4,1.399c-7.1,7.601-8.8,19.3-10.2,29.3
			c-4.7,33.2-2.8,69,2.1,102.101c0.4,2.7,3.5,4.6,6,4.6c34.4,0.2,68.2-0.399,101.6-9.3
			C117.102,248.226,117.702,243.125,115.802,239.726z"/>
		<path d="M268.702,125.526c-0.6-1.5-1.899-2.7-4-3.4c-5-1.6-10.6-1.899-16.1-1.8c1.1-6.7,1.399-13.4,1.8-16.6
			c1.5-15,2-30.2,2.9-45.2c0.699-11.9,5.1-24,5.3-35.601c0.1-3.6-4.101-6.199-7.3-4.399c-0.4-0.4-0.801-0.8-1.4-1
			c-7.5-3.7-18.3-2-26.5-1.4c-2.7,0.2-4.2,1.9-4.6,3.9c-6.801,5.399-8.4,25.2-9.301,29.899c-4.1,21.101-11.199,42.5-15.399,64
			c-3.3-0.3-6.7-0.5-10-0.6c2-28.5,7.2-56.7,11.899-84.8c0.7-4.2-1.699-8.4-6.399-8.4c-12,0-23.8,0.4-35.8,1.9
			c-3.601,0.5-6.5,2.7-6.601,6.6c-1.399,47.2,3.4,94.7-4.899,141.5c-0.601,3.2,0.8,6.601,4.3,7.5c4.6,1.2,6.6,1.601,9,1
			c4.399,1.8,9.5,2.601,14.8,3c0.1,10.4,0.5,20.9,0.8,31.3c0.3,9.2,0.4,18.4,1.2,27.601c0.2,2.1,0.4,4.6,1.5,6.5
			c-2.3,2.899-1.2,8.5,2.9,9.3c10,1.9,19.699,1,29.8,0.8c3-0.1,5.1-1.899,6.1-4.7c5.4-14.199,6.5-29,6.4-44.1
			c0-8.3-0.101-17.6-1.101-26.6c14.801-0.5,29.801-1.801,43.801-4.9c0.5-0.1,0.899-0.4,1.3-0.6c2.5,1,5.7,0.3,6.899-3.2
			c3.2-9.4,3.7-19,3.801-28.8C273.702,138.826,275.102,128.026,268.702,125.526z"/>
	</g>
</g>
</svg>