<?xml version="1.0" encoding="iso-8859-1"?>
<!-- Uploaded to: SVG Repo, www.svgrepo.com, Generator: SVG Repo Mixer Tools -->
<!DOCTYPE svg PUBLIC "-//W3C//DTD SVG 1.1//EN" "http://www.w3.org/Graphics/SVG/1.1/DTD/svg11.dtd">
<svg fill="#000000" version="1.1" id="Capa_1" xmlns="http://www.w3.org/2000/svg" xmlns:xlink="http://www.w3.org/1999/xlink" 
	 width="800px" height="800px" viewBox="0 0 267.008 267.008"
	 xml:space="preserve">
<g>
	<g>
		<path d="M240.111,93.222c-21.7-15.4-46.6-35.1-71-46.7c-0.1-4,0-8-0.1-11.9c-0.801-35.1-28.2-36.2-56.4-32.2
			c-21.5,3.1-91.7-15-100.3,16.4c-5.1,18.4-1.9,40.4-2.3,59.3c-0.6,32.6,1.4,65.1,4.1,97.5c0.3,3,3.5,3.899,5.4,2.699
			c0.1,0,0.2,0.101,0.3,0.101c15,3.5,29.9,2.2,44.9,0.8c-4.3,6.1-8.6,12.3-12.8,18.5c-1.4,2-0.8,5.2,0.9,6.8
			c33.2,31.7,76.8,45,118.399,62.2c1.9,0.8,4.2-0.2,5.601-1.5c36.5-34.2,68.399-83.9,80-132.7
			C260.311,117.622,252.111,101.822,240.111,93.222z M161.411,174.722c0.601-0.4,1.101-1,1.4-1.9c7.1-15.899,4.8-37.1,5.399-54
			c0.4-10.1,0.601-20.2,0.7-30.4c11.9,7.3,23.7,14.8,34.601,23.7c23.6,19.3,15.1,38.199,2,61c-4.2,7.399-20.801,38.899-29.601,35.3
			c-22.6-9.2-46.2-15.2-66.1-29.9c15.6,1.3,31.2,3.3,46.7,2.101C160.411,180.521,162.011,177.521,161.411,174.722z M22.311,169.222
			c-0.5-0.1-1,0-1.5,0.1c-0.2-34.399-1.2-68.699-0.5-103.1c0.2-11.8,0.1-23.5,0.1-35.3c0-28.6,57.7-16.7,72-16
			c9.3,0.5,21.3-2.4,30.1-3.6c25.899-3.4,36.8,16.7,36.3,40.4c-0.2,7.2-0.2,14.3-0.2,21.5c-2.4,2.1-3.1,6.2-0.1,8.6
			c0,8.4-0.101,16.8-0.2,25.3c-0.3,17.3,2.8,44.5-4.4,60.6c-0.399,0.9-0.5,1.7-0.399,2.5c-17.2-1.8-34.7-2.5-51.9-3.4
			C75.011,165.321,48.811,172.821,22.311,169.222z M241.21,144.821c-4.8,15.301-13,29.801-20.8,43.7c-8.3,15-36.5,71.2-56.7,62.8
			c-18.399-7.6-36.899-14.399-55.099-22.6c-24.1-10.8-49.5-20.4-34.1-49.3c0.2-0.4,0.3-0.7,0.3-1.101c3.4-0.3,6.9-0.5,10.4-0.6
			c5.5-0.2,10.9,0,16.4,0.3c-0.5,1.101-0.4,2.4,0.8,3.5c21.1,20.9,50.9,29.101,77.7,40.3c1.6,0.7,4.1-0.1,5.3-1.399
			c19.601-23,43.601-52.9,46.4-84.101c2.399-26.399-41.3-49.6-62.7-61.399c0-4.9,0.1-9.8,0.1-14.8c11.7,9.7,25.9,17.3,38,25.9
			C226.811,100.022,250.71,114.722,241.21,144.821z"/>
		<path d="M144.111,20.422c-32.7-0.2-65.4-0.2-98.1-0.2c-2.5,0-4.8,1.7-5.4,4.1c-9,32.5-8.8,71.8-3.8,105.6
			c-2.3,1.8-2.5,5.7,1.1,6.7c1.1,3.5,5.3,3.699,7.8,1.6c30.1,5.8,61.3,2.5,91.8,1.7c1.6,2.899,6.3,2.399,6.699-1.601
			c3-37-1.6-74.1,5.301-110.899C150.011,23.822,147.911,20.422,144.111,20.422z M47.611,130.122c0.6-27.5-2.8-54.7-0.2-82.3
			c0.5-4.8-0.4-16.4,6.7-16.4c10.9,0,21.8,0,32.7,0c17,0,34-0.1,50.899-0.2c-5.099,32.3-4.299,65.7-1.5,98.2
			C106.611,129.622,77.011,133.522,47.611,130.122z"/>
	</g>
</g>
</svg>