<?xml version="1.0" encoding="iso-8859-1"?>
<!-- Uploaded to: SVG Repo, www.svgrepo.com, Generator: SVG Repo Mixer Tools -->
<!DOCTYPE svg PUBLIC "-//W3C//DTD SVG 1.1//EN" "http://www.w3.org/Graphics/SVG/1.1/DTD/svg11.dtd">
<svg fill="#000000" version="1.1" id="Capa_1" xmlns="http://www.w3.org/2000/svg" xmlns:xlink="http://www.w3.org/1999/xlink" 
	 width="800px" height="800px" viewBox="0 0 270.017 270.017"
	 xml:space="preserve">
<g>
	<g>
		<path d="M263.841,159.316c-24.8,2.1-9.3-29.4-4.8-42.8c5.101-15,9.5-28.9-0.2-43c-9-13.2-27.1-21.3-42.8-20.3
			c-7.1,0.4-13.3,4-17,9.1c-1.5-2.6-4.7-3.6-7.1-2.6c-3.601-23.8-52.2-22.4-69.4-23.9c-22.8-2-97.4-8-103.6,25
			c-0.8,0.1-1.6,0.2-2.4,0.3c-1.5,0.3-3,1.8-3.3,3.3c-0.6,3.1,0.4,5.7,2.4,8c-21.7,15-15.6,58-12.1,79.8
			c3.2,19.5,17.4,34.101,34.9,44c-7.9,2.9-1.9,19.601,2.9,23.7c14.3,12.2,37.9,14.101,55.8,15.4c19.3,1.399,41.8,1.1,59.5-7.8
			c12.699-6.4,14.199-23.601,1.5-30.9c29.6-20.2,42.399-57.7,43.3-99.7c0.8,0.4,1.6,0.7,2.5,0.8c4.8,0.5,8.7-3.4,13.6-3.9
			c14-1.3,13.2,12.4,10.3,21.6c-4.899,15.3-11.699,25-7.899,41.5c5.3,23.2,30.2,33,43.6,15.3c0.2,0,0.3,0,0.5,0
			C272.041,171.416,272.041,158.616,263.841,159.316z M27.541,66.316c29.5-30.6,103.7-21.1,142.2-10.7c16.4,4.5-3.4,15.2-9.6,17.6
			c-9,3.5-19.101,4-28.601,4.6c-16.4,1.1-33.1-0.5-49.5-2.1c-11.7-1.1-23.3-2.9-34.9-5c-5.3-0.9-10.5-2.1-15.7-3.3
			c-1.3-0.3-3.1-0.5-4.6-0.7C27.141,66.616,27.341,66.516,27.541,66.316z M126.541,199.316c-36,9.3-82.6-3.9-104.9-33.7
			c-14.9-19.9-14.8-68.7-1.6-89.5c15.5,9.5,52.6,10.9,62.1,12c27.1,3.2,55,4.6,81.5-2.7c6.699-1.8,20.1-8,25.899-16.1
			C193.241,122.216,186.541,183.816,126.541,199.316z M250.642,100.416c-0.4-0.6-0.9-1.1-1.4-1.5c2.9-7.7,0.8-14.5-4.1-20
			c0.1-0.6,0.1-1.3,0.1-1.9C252.341,84.016,252.642,92.016,250.642,100.416z"/>
		<path d="M152.642,134.316c-2.301-4.1-8-9-13.301-10c-0.1-1.7-1.199-3.1-2.699-3.8c-5.801-11.8-22.701-11.5-35.701-8.1
			c-19.5,5.2-35.2,18.1-36.9,39c-1,12,8.3,14.2,17.5,13c-4.6,6.7-7,15.3,3.2,18.601c11.5,3.6,26.8-3.5,37-8.101
			c11.6-5.3,26-13.5,31.5-25.7C155.341,144.316,155.341,139.116,152.642,134.316z M74.041,154.517c-2.7-4,2.5-14.301,4.4-17.601
			c3.4-5.7,10.6-9.3,16.3-12.1c8.6-4.2,26.1-9.2,35-2.1c-6.7,9.5-17.3,16.7-27,22.7C98.841,147.916,78.341,160.716,74.041,154.517z
			 M143.341,146.616c-4.699,8.3-14.9,13.8-23,18c-8.6,4.5-18.4,8.6-28.2,9.4c-1.6,0.1-5.7-0.4-5.7-0.2c-1.1-2.601,2.7-8.101,4-10.3
			c0.3-0.5,0.4-0.9,0.4-1.4c0.9-0.3,1.7-0.6,2.5-1c14.7-6.4,30.4-16.3,41-29C138.941,136.816,148.142,138.017,143.341,146.616z"/>
	</g>
</g>
</svg>