<?xml version="1.0" encoding="iso-8859-1"?>
<!-- Uploaded to: SVG Repo, www.svgrepo.com, Generator: SVG Repo Mixer Tools -->
<!DOCTYPE svg PUBLIC "-//W3C//DTD SVG 1.1//EN" "http://www.w3.org/Graphics/SVG/1.1/DTD/svg11.dtd">
<svg fill="#000000" version="1.1" id="Capa_1" xmlns="http://www.w3.org/2000/svg" xmlns:xlink="http://www.w3.org/1999/xlink" 
	 width="800px" height="800px" viewBox="0 0 279.954 279.954"
	 xml:space="preserve">
<g>
	<g>
		<path d="M275.329,110.905c-12.1-5.1-61.1-7.5-44.4-23.8c10.801-10.5,18-19.3,22.601-33.7c1.5-4.8-3.2-8.7-7.7-7.7
			c-22.5,4.9-42.8,15.6-64.8,21.5c6.7-13.4,13.1-32.1-4.5-34.5c-32.5-4.5-76.101-0.2-107.601,14.3c4-10.6,0.6-24.7-9.3-28.2
			c-4.6-6.9-14.1-7.3-21.2-3.6c-7.7,4.1-11.8,13.5-12.6,21.7c-0.7,6.9,1.2,13.5,5.6,18.5c-15.3,35.7-14.8,84.4-22,120.7
			c-3.8,19.199-22.3,78.8,6.1,89.8c24.5,9.5,28.6-42,30.5-54.7c3.9-26.3,5.4-52.9,7.6-79.4c1.2,2.4,4.4,3.4,6.5,1.2
			c11.1-11.4,47.9-14.4,62.3-16.3c9.4-1.3,30.4-2.7,23.601,12.4c-1.601,3.6-1.9,9.2,0.2,12.699c8.8,15,24.6,12.9,39.1,10
			c30.6-6,64.9-12.6,91.5-29.299C281.929,119.405,280.329,113.005,275.329,110.905z M24.729,250.405
			c-6.6,15.101-11.6-13.8-11.5-18.899c0.1-11.101,2.2-22.701,3.9-33.601c2.7-17.3,6.4-34.399,9.9-51.601c5.7-28,5.9-57.6,12.2-85.5
			c4.1,1.5,8.6,1.5,13,0.5C39.529,122.605,49.529,193.405,24.729,250.405z"/>
	</g>
</g>
</svg>