<?xml version="1.0" encoding="iso-8859-1"?>
<!-- Uploaded to: SVG Repo, www.svgrepo.com, Generator: SVG Repo Mixer Tools -->
<!DOCTYPE svg PUBLIC "-//W3C//DTD SVG 1.1//EN" "http://www.w3.org/Graphics/SVG/1.1/DTD/svg11.dtd">
<svg fill="#000000" version="1.1" id="Capa_1" xmlns="http://www.w3.org/2000/svg" xmlns:xlink="http://www.w3.org/1999/xlink" 
	 width="800px" height="800px" viewBox="0 0 281.322 281.322"
	 xml:space="preserve">
<g>
	<g>
		<path d="M227.56,78.926c-5.601-37.2-41.2-73.6-78.801-78.3c-40.2-5-78.7,20.4-90.5,60.1c-7.8,26.3-7.9,53.1,3.8,78.6
			c19.6,42.6,41.1,71.6,39.3,120.7c-4.5,0.101-6.9,7.5-2.3,9.9c21.8,11.7,60.8,18.7,80.5-0.9c1.3-1.299,1.699-2.799,1.399-4.199
			c2.101-1.301,3.5-3.6,2.7-6.6C168.959,195.525,237.459,144.926,227.56,78.926z M152.659,14.826c48.9,38.9,39.3,109.8,27.3,165.2
			c-8.8-2.6-18.399-3.5-28.1-3.5c5.8-44.399,10.399-85.1,4.399-129.6c-0.399-3.3-1.699-24.5-7.3-32.7
			C150.159,14.426,151.359,14.626,152.659,14.826z M156.06,191.126c-1.5,2.8-2.301,6-3.2,9.2c-1.5,5.1-2.7,10.199-3.4,15.4
			c-2.2,0.1-4.2,0.199-5.8,0.1c-3.7-0.1-8.5-0.6-13.4-0.9c0.3-8,0.2-16.5-1-24.5C138.159,190.525,147.06,190.727,156.06,191.126z
			 M155.659,229.326c5.3,0.5,10.9,0.6,14.9-0.9c-0.4,2.7-0.7,5.5-0.9,8.301c-4.6-0.301-9.3-0.201-14,0.1
			C155.759,234.227,155.859,231.626,155.659,229.326z M169.56,242.525c0,3.301,0.3,6.701,0.699,10.201
			c-5.3,0.5-10.399,1.299-15.699,1.899c0.1-2.899,0.199-5.899,0.3-8.8c0-0.2,0-0.4,0-0.5
			C160.06,245.025,164.959,244.227,169.56,242.525z M119.459,236.525c-2.5-0.1-5-0.199-7.5-0.299c0-3.9-0.1-7.801-0.5-11.5
			c2.2,1.199,5,2,8,2.5c-0.1,0.299-0.2,0.699-0.2,1.199C119.259,231.025,119.359,233.727,119.459,236.525z M111.859,239.126
			c2.5,0.399,5.1,0.899,7.7,1.5c0.2,4.8,0.4,9.5,0.3,14.3c-3,0-6,0-9,0.1c-0.2,0-0.3,0.101-0.4,0.201
			C111.259,249.727,111.759,244.326,111.859,239.126z M125.059,241.727c2.4,0.5,4.8,0.899,7.2,1.399c0.2,4,0.6,8.101,1,12.101
			c-2.9-0.101-5.8-0.101-8.7-0.201C124.959,250.626,125.059,246.126,125.059,241.727z M124.759,227.626c2.3,0.101,4.7,0.2,7,0.2
			c0,3,0.1,6.1,0.2,9.1c-2.3-0.1-4.6-0.1-6.9-0.199c0-2.801-0.1-5.601-0.1-8.5C124.959,228.025,124.859,227.926,124.759,227.626z
			 M148.159,237.126c-2.3,0.101-4.6,0.2-6.8,0.101c-1,0-2-0.101-2.9-0.101c0-3.101,0-6.2,0-9.3c1.9,0,3.7,0,5.3,0.1
			c1.2,0.1,2.801,0.301,4.4,0.4C147.759,231.227,147.959,234.326,148.159,237.126z M138.559,244.126c3.4,0.5,6.8,0.899,10.1,1.101
			c0.1,3.299,0.2,6.6,0.3,9.899c-1.5,0.101-3,0.2-4.6,0.3c-1.8,0-3.5,0-5.3,0C138.759,251.525,138.659,247.826,138.559,244.126z
			 M120.559,17.026c0.7-0.9,1.1-1.8,1.3-2.7c1.3-0.3,2.6-0.4,3.9-0.6c-28.5,41.2-14.8,119.9,4.7,163.799
			c-9.6,0.9-19.2,2.201-28.2,3.201C85.459,122.626,77.759,66.726,120.559,17.026z M121.059,190.227c0.8,8.1,2.4,16.399,3.5,24.5
			c-5.3,0-10.4,0.699-13.9,2.799c-1.5-9.5-4.1-18.6-7.8-27.699C108.959,190.025,115.059,190.126,121.059,190.227z M109.359,262.626
			c0.4-1.899,0.6-3.8,0.8-5.7c0.1,0.1,0.2,0.2,0.4,0.301c2.9,0.699,6,1.399,9.2,2.1c-0.1,2.1-0.3,4.1-0.5,6.199
			C115.959,264.626,112.659,263.727,109.359,262.626z M123.059,266.326c0.5-2,0.8-4.1,1.1-6.1c3.4,0.699,6.8,1.399,10.3,1.899
			c0.3,1.899,0.5,3.8,1,5.7C131.259,267.626,127.159,267.227,123.059,266.326z M141.059,268.025c-0.2,0-0.5,0-0.7,0
			c-0.3-1.699-0.4-3.5-0.6-5.199c3.2,0.4,6.4,0.6,9.601,0.699c0.1,1.201,0.1,2.301,0.2,3.5
			C146.859,267.525,144.06,267.926,141.059,268.025z M154.06,265.926c0.1-0.8,0.1-1.699,0.1-2.5c6.1-0.199,12-1.199,17.4-3.3
			c0.1,0.3,0.1,0.601,0.199,1C165.659,262.626,159.959,264.525,154.06,265.926z M172.659,218.126c-4-2.7-11-2.899-17.5-2.7
			c1.6-4.8,3.3-9.6,5.4-14.199c1.5-3.4,3.199-6.301,3.5-9.701c6,0.301,12,0.701,18,1.201
			C178.159,201.025,174.859,209.525,172.659,218.126z"/>
	</g>
</g>
</svg>